<?xml version="1.0" encoding="UTF-8" standalone="no"?>
<svg
   xmlns:dc="http://purl.org/dc/elements/1.1/"
   xmlns:cc="http://creativecommons.org/ns#"
   xmlns:rdf="http://www.w3.org/1999/02/22-rdf-syntax-ns#"
   xmlns:svg="http://www.w3.org/2000/svg"
   xmlns="http://www.w3.org/2000/svg"
   xmlns:sodipodi="http://sodipodi.sourceforge.net/DTD/sodipodi-0.dtd"
   xmlns:inkscape="http://www.inkscape.org/namespaces/inkscape"
   width="22"
   version="1.1"
   height="22"
   id="svg7"
   sodipodi:docname="text-x-markdown.svg"
   inkscape:version="1.0.1 (3bc2e813f5, 2020-09-07)">
  <sodipodi:namedview
     pagecolor="#ffffff"
     bordercolor="#666666"
     borderopacity="1"
     objecttolerance="10"
     gridtolerance="10"
     guidetolerance="10"
     inkscape:pageopacity="0"
     inkscape:pageshadow="2"
     inkscape:window-width="1440"
     inkscape:window-height="825"
     id="namedview9"
     showgrid="false"
     inkscape:zoom="37.25457"
     inkscape:cx="9.922712"
     inkscape:cy="11.240294"
     inkscape:window-x="0"
     inkscape:window-y="0"
     inkscape:window-maximized="1"
     inkscape:current-layer="layer1" />
  <defs
     id="defs3871" />
  <metadata
     id="metadata3874">
    <rdf:RDF>
      <cc:Work
         rdf:about="">
        <dc:format>image/svg+xml</dc:format>
        <dc:type
           rdf:resource="http://purl.org/dc/dcmitype/StillImage" />
        <dc:title></dc:title>
      </cc:Work>
    </rdf:RDF>
  </metadata>
  <g
     inkscape:label="Capa 1"
     inkscape:groupmode="layer"
     id="layer1"
     transform="matrix(1 0 0 1 -326 -534.3622)">
    <path
       inkscape:connector-curvature="0"
       style="fill:#6c7a89"
       id="path3367"
       d="m 0,5 0,12.1 22,0 L 22,5 Z m 1,1 20,0 0,10.1 -20,0 z"
       transform="matrix(1 0 0 1 326 534.3622)" />
    <path
       inkscape:connector-curvature="0"
       style="fill:#6c7a89"
       id="path3373"
       d="m 328,541.3622 0,0.82617 0,7.17383 2,0 0,-5.17383 2,2 2,-2 0,5.17383 2,0 0,-7.17383 0,-0.82617 -2.00195,0 -1.99805,1.99805 -1.99805,-1.99805 -2.00195,0 z m 13,0 0,4 -3,0 4,4 4,-4 -3,0 0,-4 -2,0 z" />
    <path
       style="fill:#ffffff;stroke-width:0.0268423"
       d="M 2.0177825,11.002806 V 7.0167176 h 0.9865922 0.9865922 l 0.9928947,0.9931667 c 0.5460922,0.5462417 1.0046609,0.9931668 1.0190419,0.9931668 0.014381,0 0.4736592,-0.4469251 1.0206182,-0.9931668 L 8.0179924,7.0167176 h 0.9859832 0.9859832 v 3.9860884 3.986088 H 8.996792 8.0036253 V 12.392031 9.7951686 L 7.0036138,10.794914 6.0036022,11.794658 5.0107058,10.80149 C 4.4646126,10.255247 4.0086887,9.8083214 3.9975414,9.8083214 c -0.011147,0 -0.020268,1.1656286 -0.020268,2.5902866 v 2.590286 H 2.9975281 2.0177825 Z"
       id="path11"
       transform="translate(326,534.3622)" />
    <path
       style="fill:#ffffff;stroke-width:0.0268423"
       d="M 0.00460669,11.043069 V 5.0035418 H 10.996547 21.988487 v 6.0395272 6.039528 H 10.996547 0.00460669 Z M 21.022162,11.05649 V 5.9967085 H 11.009968 0.99777343 V 11.05649 16.116272 H 11.009968 21.022162 Z"
       id="path13"
       transform="translate(326,534.3622)" />
    <path
       style="fill:#ffffff;stroke-width:0.0268423"
       d="m 14.01631,12.989139 -1.972775,-1.972912 h 1.482971 1.482971 V 9.0164722 7.0167176 h 0.993167 0.993167 v 1.9997546 1.9997548 h 1.482971 1.482971 l -1.972776,1.972912 c -1.085026,1.085102 -1.978876,1.972913 -1.986333,1.972913 -0.0075,0 -0.901307,-0.887811 -1.986334,-1.972913 z"
       id="path15"
       transform="translate(326,534.3622)" />
  </g>
</svg>
