<?xml version="1.0" encoding="UTF-8" standalone="no"?>
<svg
   xmlns:dc="http://purl.org/dc/elements/1.1/"
   xmlns:cc="http://creativecommons.org/ns#"
   xmlns:rdf="http://www.w3.org/1999/02/22-rdf-syntax-ns#"
   xmlns:svg="http://www.w3.org/2000/svg"
   xmlns="http://www.w3.org/2000/svg"
   xmlns:sodipodi="http://sodipodi.sourceforge.net/DTD/sodipodi-0.dtd"
   xmlns:inkscape="http://www.inkscape.org/namespaces/inkscape"
   viewBox="0 0 50 50"
   version="1.1"
   id="svg6"
   sodipodi:docname="icon-search.svg"
   inkscape:version="1.0.1 (3bc2e813f5, 2020-09-07, custom)"
   width="50"
   height="50">
  <metadata
     id="metadata10">
    <rdf:RDF>
      <cc:Work
         rdf:about="">
        <dc:format>image/svg+xml</dc:format>
        <dc:type
           rdf:resource="http://purl.org/dc/dcmitype/StillImage" />
        <dc:title></dc:title>
      </cc:Work>
    </rdf:RDF>
  </metadata>
  <sodipodi:namedview
     pagecolor="#ffffff"
     bordercolor="#666666"
     borderopacity="1"
     objecttolerance="10"
     gridtolerance="10"
     guidetolerance="10"
     inkscape:pageopacity="0"
     inkscape:pageshadow="2"
     inkscape:window-width="1920"
     inkscape:window-height="1005"
     id="namedview8"
     showgrid="false"
     inkscape:zoom="5.5859375"
     inkscape:cx="-50.358621"
     inkscape:cy="19.258337"
     inkscape:window-x="0"
     inkscape:window-y="0"
     inkscape:window-maximized="1"
     inkscape:current-layer="svg6"
     inkscape:document-rotation="0" />
  <defs
     id="defs3051">
    <style
       type="text/css"
       id="current-color-scheme">
      .ColorScheme-Text {
        color:#eff0f1;
      }
      </style>
  </defs>
  <path
     style="fill:currentColor;fill-opacity:1;stroke:none;stroke-width:3.84566"
     d="M 19.245378,2 C 9.6914386,2 2,9.756726 2,19.365804 c 0,9.620656 7.7029355,17.365805 17.245378,17.365805 4.076207,0 7.765559,-1.471073 10.710997,-3.836458 l 15.32174,15.428734 2.70956,-2.72848 L 32.665934,30.166671 C 35.025298,27.196038 36.490756,23.477016 36.490756,19.365804 36.490756,9.7451488 28.787821,2 19.245378,2 Z m 0,3.8590676 c 7.430842,0 13.413072,6.0240044 13.413072,13.5067364 0,7.482733 -5.98223,13.506737 -13.413072,13.506737 -7.430842,0 -13.4130718,-6.024004 -13.4130718,-13.506737 0,-7.482732 5.9822298,-13.5067364 13.4130718,-13.5067364 z"
     class="ColorScheme-Text"
     id="path4" />
</svg>
