<?xml version="1.0" encoding="UTF-8" standalone="no"?>
<svg
   xmlns:dc="http://purl.org/dc/elements/1.1/"
   xmlns:cc="http://creativecommons.org/ns#"
   xmlns:rdf="http://www.w3.org/1999/02/22-rdf-syntax-ns#"
   xmlns:svg="http://www.w3.org/2000/svg"
   xmlns="http://www.w3.org/2000/svg"
   xmlns:sodipodi="http://sodipodi.sourceforge.net/DTD/sodipodi-0.dtd"
   xmlns:inkscape="http://www.inkscape.org/namespaces/inkscape"
   width="64"
   version="1.1"
   height="64"
   id="svg2"
   inkscape:version="1.0.1 (3bc2e813f5, 2020-09-07)"
   sodipodi:docname="icon-link.svg">
  <sodipodi:namedview
     pagecolor="#ffffff"
     bordercolor="#666666"
     borderopacity="1"
     objecttolerance="10"
     gridtolerance="10"
     guidetolerance="10"
     inkscape:pageopacity="0"
     inkscape:pageshadow="2"
     inkscape:window-width="1440"
     inkscape:window-height="825"
     id="namedview10"
     showgrid="false"
     inkscape:zoom="4.363447"
     inkscape:cx="15.74695"
     inkscape:cy="41.401536"
     inkscape:window-x="0"
     inkscape:window-y="0"
     inkscape:window-maximized="1"
     inkscape:current-layer="layer1"
     inkscape:document-rotation="0" />
  <defs
     id="defs3871" />
  <metadata
     id="metadata3874">
    <rdf:RDF>
      <cc:Work
         rdf:about="">
        <dc:format>image/svg+xml</dc:format>
        <dc:type
           rdf:resource="http://purl.org/dc/dcmitype/StillImage" />
        <dc:title></dc:title>
      </cc:Work>
    </rdf:RDF>
  </metadata>
  <g
     inkscape:label="Capa 1"
     inkscape:groupmode="layer"
     id="layer1"
     transform="translate(-326,-534.3622)">
    <path
       inkscape:connector-curvature="0"
       style="color:#000000;fill:#209ae7;fill-opacity:1;stroke-width:3.64015"
       id="path3011"
       d="m 358.13605,537.3622 c -1.16106,0 -2.28573,0.0946 -3.41403,0.22932 -1.10645,0.13105 -2.23476,0.3167 -3.29758,0.56751 -0.34217,0.08 -0.67331,0.24389 -1.02273,0.34218 -0.30577,0.0837 -0.60784,0.13468 -0.90994,0.22932 -0.38217,0.12013 -0.77888,0.21477 -1.13922,0.34218 -0.38946,0.13832 -0.7534,0.30213 -1.13922,0.45465 -0.74976,0.30214 -1.44496,0.66251 -2.162,1.02253 -0.25845,0.13104 -0.5423,0.20384 -0.79708,0.34217 -0.83712,0.4401 -1.60509,0.95699 -2.38764,1.47717 -0.2985,0.20021 -0.61873,0.35674 -0.9099,0.56751 -0.12012,0.0874 -0.22204,0.13831 -0.34218,0.22932 -0.34217,0.25845 -0.69519,0.51617 -1.02277,0.79647 -0.38942,0.32397 -0.76432,0.68034 -1.13922,1.02252 -0.11648,0.1092 -0.22569,0.23297 -0.34217,0.34217 -0.04,0.04 -0.0728,0.0728 -0.11285,0.11284 -0.0583,0.0583 -0.0546,0.17109 -0.11284,0.22934 -0.76432,0.74222 -1.59781,1.45169 -2.27481,2.274 -0.0182,0.0365 0.0182,0.091 0,0.11285 -0.6588,0.80047 -1.24843,1.63006 -1.81986,2.50332 -0.0765,0.11649 -0.15289,0.22206 -0.22932,0.34218 -0.0546,0.0874 -0.17109,0.13469 -0.22934,0.22933 -0.21841,0.35674 -0.36762,0.7608 -0.56779,1.13901 -0.0655,0.12012 -0.16381,0.22204 -0.22933,0.34216 -0.27301,0.53111 -0.54595,1.05493 -0.79709,1.59367 -0.0146,0.0365 0.0146,0.0837 0,0.11285 -0.42585,0.92022 -0.80803,1.86958 -1.13922,2.84113 -0.0691,0.19293 -0.1638,0.37493 -0.22932,0.56786 -0.0109,0.0365 0.0109,0.0801 0,0.11285 -0.0728,0.22569 -0.16017,0.45502 -0.22934,0.68435 -0.26573,0.9348 -0.50954,1.86995 -0.68428,2.8415 -0.12375,0.69855 -0.26936,1.44442 -0.34216,2.16153 -0.0983,0.96391 -0.11285,1.97187 -0.11285,2.95763 0,1.46988 0.13105,2.91066 0.34217,4.32268 0.0219,0.14924 -0.0254,0.30941 0,0.45465 0.16018,0.96791 0.42947,1.91035 0.68428,2.84187 0.0946,0.34945 0.23297,0.6767 0.34218,1.02252 0.14561,0.46921 0.28757,0.90603 0.45498,1.36433 0.28029,0.77134 0.56779,1.53542 0.90993,2.27363 0.182,0.38587 0.37122,0.76408 0.56779,1.13901 0.55323,1.06256 1.1465,2.092 1.81982,3.07083 0.0582,0.0874 0.16745,0.14197 0.22933,0.22933 0.72064,1.02252 1.43404,2.0374 2.27481,2.95799 0.14561,0.16017 0.30577,0.29849 0.45494,0.45502 0.14561,0.15289 0.30577,0.30578 0.45499,0.45466 0.77887,0.77863 1.64148,1.47353 2.50409,2.16152 1.11375,0.88747 2.28937,1.66974 3.52687,2.38649 0.0437,0.0363 0.0691,0.0874 0.11285,0.11284 0.19293,0.1092 0.3749,0.23661 0.56779,0.34217 1.15014,0.56787 2.51869,1.18269 3.41403,1.59367 0.40037,0.15288 0.8408,0.20748 1.25207,0.34217 0.19292,0.0655 0.3749,0.16744 0.56779,0.22933 0.49498,0.14924 0.97545,0.32761 1.47771,0.45465 0.15289,0.04 0.30214,0.0765 0.45499,0.11284 1.06278,0.25118 2.19108,0.4401 3.29754,0.56751 1.12466,0.13105 2.24932,0.22932 3.41403,0.22932 1.23751,0 2.44225,-0.0765 3.63972,-0.22932 1.32847,-0.17473 2.47861,-0.45102 3.63968,-0.68398 6.18021,-1.58639 11.50871,-5.17376 15.35588,-10.0057 0.10189,-0.1274 0.24388,-0.21113 0.34217,-0.34217 0.0328,-0.0437 0.08,-0.0728 0.11284,-0.11284 0.051,-0.0656 0.0656,-0.16017 0.11285,-0.22934 2.26753,-3.00167 3.91994,-6.47984 4.89174,-10.23502 0.20386,-0.78954 0.4295,-1.57181 0.56779,-2.38684 0.0182,-0.1092 -0.0182,-0.22934 0,-0.34218 0.0218,-0.1456 0.091,-0.28757 0.11285,-0.45502 0.0219,-0.15652 0.0946,-0.29849 0.11284,-0.45466 h -0.11284 c 0.16017,-1.19724 0.34218,-2.39776 0.34218,-3.63869 0,-2.00828 -0.18201,-4.01655 -0.56779,-5.91234 -0.0328,-0.15652 -0.08,-0.2985 -0.11285,-0.45465 -0.16745,-0.7568 -0.45131,-1.53942 -0.68428,-2.27437 -0.0109,-0.0365 0.0109,-0.08 0,-0.11284 -0.0437,-0.13833 -0.0655,-0.20386 -0.11284,-0.34219 -0.14196,-0.43317 -0.29485,-0.93878 -0.45494,-1.36433 -0.0437,-0.11647 -0.0656,-0.23296 -0.11285,-0.34217 -0.15653,-0.39678 -0.3931,-0.7495 -0.5678,-1.13863 -0.007,0 0.007,-0.0947 0,-0.11285 -0.091,-0.19657 -0.24753,-0.37457 -0.34217,-0.5675 -0.35674,-0.73859 -0.72064,-1.45533 -1.13922,-2.16116 -0.21113,-0.35673 -0.34218,-0.78955 -0.56779,-1.13901 -0.0874,-0.13104 -0.25117,-0.21112 -0.34218,-0.34217 -0.24388,-0.36037 -0.53502,-0.67342 -0.79708,-1.02252 -0.29121,-0.36401 -0.50958,-0.78591 -0.79712,-1.139 -0.0182,-0.0365 0.0182,-0.091 0,-0.11285 -0.626,-0.76042 -1.34667,-1.46625 -2.04911,-2.16116 -0.33854,-0.33489 -0.66972,-0.70582 -1.02278,-1.02251 -0.10189,-0.091 -0.23661,-0.13833 -0.34218,-0.22934 -0.76068,-0.66213 -1.56504,-1.23691 -2.38764,-1.81862 -0.20022,-0.13832 -0.36759,-0.32033 -0.5678,-0.45501 -0.25481,-0.16745 -0.53867,-0.29485 -0.79708,-0.45466 -0.49135,-0.30577 -0.96817,-0.63339 -1.47772,-0.90967 -0.44766,-0.2439 -0.90265,-0.4623 -1.36488,-0.68399 -0.77888,-0.37129 -1.57236,-0.72075 -2.38764,-1.02251 -0.96815,-0.36039 -1.9436,-0.65487 -2.95909,-0.90969 -0.89168,-0.22568 -1.8089,-0.42953 -2.72974,-0.56749 -1.44497,-0.22205 -2.92996,-0.34218 -4.43681,-0.34218 m 0,3.6387 c 1.08826,0 2.12924,0.0983 3.18474,0.22934 0.65515,0.0837 1.29211,0.21112 1.93266,0.34217 0.0365,0 0.0765,0 0.11284,0 0.6042,0.1274 1.23023,0.28757 1.81987,0.45465 0.34945,0.0983 0.68063,0.22933 1.02277,0.34217 0.626,0.20749 1.21563,0.42554 1.81982,0.68399 0.70611,0.29121 1.37948,0.55622 2.04916,0.90931 -0.11285,0.0365 -0.22934,0.0765 -0.34218,0.11285 -0.17109,0.0619 -0.41127,0.34945 -0.45495,0.45465 -0.0728,0.17473 0.0182,0.41862 0,0.68435 0.13833,0.0619 0.21842,0.32397 0.45495,0.45465 0.091,0.051 0.14925,-0.0364 0.22933,0 0.13832,0.0765 0.25481,0.3167 0.22933,0.45466 -0.04,0.20021 -0.32033,0.08 -0.45495,0.22933 0.0219,0.28393 -0.15653,0.38222 -0.22933,0.5675 0.0437,0.12012 0.20749,0.0874 0.22933,0.22933 -0.0255,0.15652 -0.28757,0.17837 -0.22933,0.34217 0.2621,0.20385 0.54959,-0.08 0.79708,-0.11284 0.54232,-0.0691 1.03006,0.14925 1.36488,-0.11285 -0.0437,-0.25845 0.36763,-0.33489 0.34217,-0.56749 -0.0218,-0.17474 -0.32761,-0.22206 -0.45494,-0.34218 -0.0691,-0.0656 -0.14561,-0.21477 -0.22933,-0.34217 -0.0946,-0.14561 -0.23296,-0.3167 -0.34218,-0.45503 -0.14196,-0.18928 -0.45494,-0.42553 -0.45494,-0.56749 0.004,-0.16381 0.18928,-0.22933 0.22933,-0.45502 -0.0437,-0.20749 -0.42586,0 -0.45499,-0.22933 0.007,-0.0692 0.0765,-0.18565 0.11285,-0.22933 0.54595,0.29849 1.08462,0.65122 1.5942,1.02251 0.11649,0.0765 0.22569,0.14926 0.34218,0.22934 0.39307,0.29485 0.7534,0.61882 1.13922,0.90967 -0.24389,0.0437 -0.36762,0.32761 -0.56778,0.56786 -0.13833,0.16746 -0.36039,0.3673 -0.5678,0.45466 -0.10189,0.0437 -0.24753,-0.0583 -0.34217,0 -0.13469,0.091 -0.18565,0.34946 -0.34218,0.45502 -0.11285,0.0765 -0.45134,0.34217 -0.56779,0.34217 -0.13833,0.004 -0.35673,-0.1456 -0.45499,-0.11284 -0.1456,0.0473 -0.0619,0.28029 -0.22932,0.34217 -0.32033,0.11284 -0.90993,-0.25116 -1.02274,0.22933 0.13833,0.27666 0.55687,0.18565 0.79708,0.34217 0.15289,0.0947 0.41494,0.52055 0.45495,0.684 0.0365,0.13831 0.0546,0.65158 0,0.79682 -0.14925,0.38586 -0.57871,0.3531 -1.02274,0.34217 -0.12376,-0.004 -0.22932,0 -0.34217,0 -0.7534,-0.0509 -1.48136,-0.3094 -1.81986,0.22934 0.0255,0.41097 0.091,0.66578 0,1.02215 -0.0655,0.2621 -0.3531,0.45502 -0.34217,0.68435 0.007,0.11649 0.2002,0.29849 0.22933,0.45466 0.0182,0.0837 -0.04,0.26573 0,0.34217 0.12376,0.24025 0.46226,-0.0364 0.68427,0 0.21478,0.0364 0.45859,0.44009 0.45495,0.68399 -0.004,0.16744 -0.12012,0.40732 -0.22933,0.56749 -0.21113,0.32398 -0.60783,0.2803 -0.90993,0.45466 -0.25481,0.14196 -0.30577,0.43282 -0.45494,0.68398 -0.16017,0.26938 -0.29486,0.40369 -0.22934,0.79684 -0.21841,0.42917 -0.45859,0.70582 -0.90993,0.90967 -0.13468,0.0619 -0.33489,0.14196 -0.45494,0.22933 -0.0983,0.0691 -0.20385,0.18564 -0.34218,0.34218 -0.17108,0.18928 -0.36401,0.3094 -0.45498,0.45501 -0.0691,0.11285 -0.0364,0.30577 -0.11285,0.45466 -0.10555,0.20385 -0.32033,0.36402 -0.45494,0.5675 -0.0619,0.0946 -0.15652,0.21477 -0.22933,0.34217 -0.15288,0.28029 -0.36762,0.5493 -0.34218,0.79683 0.0255,0.24025 0.32398,0.24754 0.34218,0.45466 0.0146,0.11649 -0.12012,0.21476 -0.11284,0.34217 0.004,0.18564 0.0983,0.31306 0.11284,0.45465 0.0365,0.36038 -0.16016,0.43683 -0.22933,0.68435 -0.0328,0.11649 0.0291,0.24753 0,0.34218 -0.0583,0.18201 -0.33854,0.35673 -0.34217,0.56786 -0.004,0.15289 0.21476,0.3531 0.22932,0.56751 0.007,0.1456 -0.13832,0.20748 -0.11284,0.34217 0.0509,0.26573 0.58964,0.5897 0.79708,0.79682 0.27302,0.27301 0.56415,0.50598 0.68428,0.7972 0.0983,0.24389 0.14925,0.61082 0.34218,0.79647 0.14196,0.13468 0.38578,0.19656 0.56779,0.34217 0.17109,0.13105 0.38942,0.20021 0.56779,0.34218 0.29486,0.23297 0.66604,0.71674 1.13922,0.68398 0.24753,-0.0364 0.51683,-0.182 0.79708,-0.22933 0.28758,-0.0509 0.61876,-0.14197 0.90994,-0.11284 0.22204,0.0365 0.4513,0.24025 0.68424,0.22933 0.24388,0 0.5205,-0.22205 0.79712,-0.34217 0.48043,-0.2075 1.23386,-0.55659 1.93266,-0.45466 0.53139,0.0765 0.54232,0.78955 0.90993,1.02252 0.42947,0.0364 0.79708,-0.19658 1.13922,-0.11285 0.25482,0.0619 0.54232,0.48014 0.5678,0.68398 0.0254,0.21113 -0.19657,0.44046 -0.22934,0.56751 -0.0655,0.28393 -0.0619,0.61518 -0.11284,0.79682 -0.04,0.13833 -0.11648,0.31306 -0.11285,0.45503 0,0.1274 0.21113,0.51654 0.34218,0.68398 0.16017,0.20384 0.37489,0.34945 0.56779,0.5675 0.3167,0.39677 0.56416,0.85871 0.79708,1.36469 0.0619,0.13468 -0.0583,0.28029 0,0.45466 -0.10556,0.81503 -0.37486,1.37198 -0.90992,2.274 -0.25118,0.29122 -0.57507,0.54602 -0.56779,0.90967 -0.0182,0.87328 0.49502,1.42986 0.45498,2.27401 -0.0874,1.135 0.0874,1.21144 0,1.81898 0.38217,0.19293 0.11285,0.8478 0,1.25186 -0.16381,0.48013 -0.36402,0.58934 -0.45498,0.90967 0.25845,0.11284 0.62239,0.0691 0.90993,0 0,0 0.34945,1.45897 0.34217,1.47717 -2.93724,2.90011 -6.6206,5.05036 -10.69343,6.25451 -2.00183,0.48378 -2.5951,0.48378 -3.52686,0.68399 -1.21563,0.20021 -2.4859,0.34217 -3.75253,0.34217 -0.88441,0 -1.75794,-0.0365 -2.61695,-0.11284 -0.6624,-0.0656 -1.28843,-0.22569 -1.93267,-0.34217 -0.19292,-0.0364 -0.37849,-0.0728 -0.56779,-0.11285 -0.59327,-0.20021 -1.2775,-0.32033 -1.81985,-0.45466 -0.61871,-0.17472 -1.21928,-0.34945 -1.81983,-0.56786 0.051,-0.0474 0.0983,-0.04 0.11285,-0.11284 0.0328,-0.14561 0.007,-0.22569 0,-0.45466 0.0546,-0.23661 0.29121,-0.21113 0.34218,-0.45466 -0.10189,-0.17472 -0.30214,-0.13832 -0.45495,-0.22932 -0.14925,-0.0874 -0.24753,-0.26938 -0.22933,-0.45503 0.25481,-0.10556 0.72792,0.24025 0.90989,-0.11284 0.091,-0.16745 -0.12376,-0.51289 0,-0.68398 0.0837,-0.11285 0.61512,-0.20021 0.79712,-0.22934 0.25845,-0.0437 0.53867,-0.0363 0.68424,-0.11283 0.16016,-0.10557 0.36762,-0.38222 0.34218,-0.68435 -0.0146,-0.14198 -0.12013,-0.21478 -0.22934,-0.34218 -0.091,-0.10557 -0.0474,-0.24025 -0.11284,-0.34217 -0.11285,-0.17109 -0.29121,-0.21113 -0.34217,-0.45466 0.34945,-0.0691 0.85896,0.37093 1.36491,0.22932 0.24025,-0.0691 0.57143,-0.68434 0.68424,-0.90967 0.0365,-0.0691 -0.0364,-0.14561 0,-0.22932 0.0437,-0.0946 0.21476,-0.17837 0.22933,-0.22934 0.0365,-0.13104 -0.0291,-0.25845 0,-0.34217 0.0874,-0.24753 0.30941,-0.27301 0.45495,-0.45502 0.1092,-0.13832 0.2366,-0.31669 0.34217,-0.45465 0.11284,-0.14925 0.15288,-0.32398 0.22933,-0.45503 0.0728,-0.44373 -0.21841,-0.7495 -0.11284,-1.13864 0.11648,-0.43681 0.71339,-0.60062 1.13922,-0.79682 0.14561,-0.0691 0.33489,-0.18201 0.45498,-0.22933 0.29122,-0.10189 0.6406,-0.13105 0.90993,-0.22933 0.45494,-0.16745 0.57143,-0.60755 0.79708,-1.02252 0.10557,-0.19657 0.20749,-0.42917 0.22934,-0.5675 0.0182,-0.12741 -0.0255,-0.19293 0,-0.34217 0.0218,-0.14561 0.0728,-0.29486 0.11283,-0.45429 0.051,-0.21113 0.11285,-0.56023 0.11285,-0.79684 0,-0.19293 -0.10556,-0.28393 -0.11285,-0.45465 -0.0328,-0.62975 0.22206,-0.79356 0.45496,-1.13901 0.11648,-0.17109 0.1456,-0.33125 0.22932,-0.45501 0.39311,-0.58571 1.07374,-0.82231 1.02277,-1.70651 -0.0182,-0.29121 -0.1274,-0.93115 -0.34217,-1.02215 -0.12376,-0.0546 -0.38946,-0.04 -0.56778,-0.11285 -0.57508,-0.21477 -0.9973,-0.97884 -1.59421,-1.02251 -0.1274,0 -0.20021,0.11284 -0.34218,0.11284 -0.2366,0 -0.53503,-0.19293 -0.79708,-0.22933 -0.16745,-0.0365 -0.4695,0.0474 -0.56779,0 -0.15289,-0.0728 -0.10557,-0.37093 -0.22934,-0.45466 -0.0983,-0.0656 -0.30577,-0.0546 -0.45494,-0.11285 -0.24025,-0.091 -0.40766,-0.20384 -0.68428,-0.22932 -0.0837,-0.004 -0.24388,0 -0.34217,0 -0.15288,-0.0365 -0.31305,-0.14561 -0.45494,-0.22934 -0.17474,-0.10556 -0.26938,-0.18928 -0.34218,-0.34217 0.16016,-0.52381 -0.34945,-0.60754 -0.45494,-0.90967 -0.051,-0.14197 0.0473,-0.32762 0,-0.45466 -0.0619,-0.182 -0.25846,-0.30577 -0.45499,-0.45501 -0.35309,-0.26938 -0.63331,-0.50562 -1.13922,-0.5675 -0.22205,-0.0365 -0.52775,0 -0.79708,0 -0.28394,-0.0365 -0.586,-0.21113 -0.79709,-0.45503 -0.20385,-0.2366 -0.27665,-0.45465 -0.45498,-0.56749 -0.17109,-0.10921 -0.45131,-0.11285 -0.56779,-0.22934 -0.0509,-0.0509 -0.0619,-0.11284 -0.11284,-0.22932 -0.0837,-0.17474 -0.22206,-0.35674 -0.11285,-0.56787 -0.19293,-0.0983 -0.12741,0.2621 -0.34218,0.22933 -0.18928,-0.26937 -0.36762,-0.41861 -0.79708,-0.34218 -0.19657,0.0365 -0.33854,0.21842 -0.56779,0.22934 -0.18929,0 -0.32033,-0.19293 -0.5678,-0.22934 -0.18928,-0.0364 -0.43678,0.13105 -0.56779,0.11285 -0.20748,-0.04 -0.26573,-0.21477 -0.45498,-0.34217 -0.13832,-0.091 -0.3785,-0.34582 -0.45495,-0.34218 -0.24389,0 -0.45858,0.52018 -0.79708,0.34218 -0.16381,-0.20749 0.30941,-0.25845 0.11285,-0.45503 -0.14561,-0.14924 -0.22206,0.0365 -0.34218,0.11285 -0.13469,0.091 -0.30578,0.17109 -0.45498,0.22933 -0.3349,0.12376 -0.53503,0.091 -0.79709,0.22933 -0.24025,0.12377 -0.31669,0.32034 -0.45497,0.56787 -0.11285,0.20384 -0.28758,0.55658 -0.45496,0.56749 -0.20384,0 -0.38581,-0.26208 -0.56779,-0.34217 -0.55687,-0.24025 -0.90265,0.1092 -1.36487,0.11285 -0.4295,0 -1.04462,-0.62211 -1.02278,-1.02215 0.0146,-0.2439 0.19657,-0.60427 0.22933,-0.90969 0.0218,-0.24024 0.22569,-0.46229 0.22933,-0.68398 0.004,-0.29485 -0.49138,-0.5351 -0.68427,-0.56786 -0.45495,-0.0837 -1.07371,0.22205 -1.59418,0 -0.0983,-0.16381 0.17109,-0.29486 0.22934,-0.45466 0.0328,-0.091 -0.0328,-0.12376 0,-0.22933 0.0583,-0.15289 0.26937,-0.2912 0.34217,-0.45465 0.0546,-0.12377 0.0583,-0.29849 0.11284,-0.45502 0.0619,-0.17837 0.21477,-0.33126 0.22934,-0.45465 0.0182,-0.16381 -0.0983,-0.34582 -0.22934,-0.45503 -0.40397,0.0365 -0.68059,0 -0.90992,0.11285 -0.52412,0.24025 -0.38579,0.96792 -0.90993,1.13901 -0.182,0.0582 -0.48407,0.0765 -0.68424,0.11284 -0.17109,0.0365 -0.38946,0.11648 -0.5678,0.11285 -0.21112,-0.004 -0.55686,-0.2075 -0.68427,-0.34218 -0.0328,-0.0363 -0.0874,-0.13105 -0.11284,-0.22933 0.007,-0.0364 -0.007,-0.0765 0,-0.11284 0.16744,-0.8114 0.33853,-1.61551 0.56779,-2.38685 0.0109,-0.0364 -0.0109,-0.08 0,-0.11285 0.15288,-0.50562 0.37486,-0.98247 0.56779,-1.47717 0.0474,-0.0364 0.0692,-0.0837 0.11284,-0.11285 0.28029,-0.19292 0.56779,-0.43282 0.90993,-0.45465 0.2075,0 0.59692,0.0728 0.79709,0.11284 0.18201,0.0365 0.29849,0.21477 0.45498,0.22933 0.44767,0.0364 0.54231,-0.37457 0.90993,-0.5675 0.3785,0.0546 0.56779,-0.0364 0.90989,0 0.23297,0.0365 0.50231,0.32761 0.68428,0.34217 0.15289,0 0.19293,-0.25117 0.34217,-0.22932 0.14561,0.0363 0.43311,0.39277 0.45495,0.56749 0.0254,0.21841 -0.17473,0.4441 -0.11284,0.68399 0.22932,0.23297 0.69515,0.20385 1.02273,0.34217 0.21477,-0.17472 0.0328,-0.42953 0,-0.68398 -0.007,-0.11284 0.0146,-0.24025 0,-0.34218 -0.0219,-0.17472 -0.11284,-0.30577 -0.11284,-0.45465 -0.004,-0.69127 0.5605,-1.09168 1.02274,-1.36469 0.2002,-0.12013 0.39309,-0.25118 0.56779,-0.34217 0.24389,-0.12377 0.36401,-0.22934 0.56778,-0.34218 0.36763,-0.20749 0.73525,-0.33489 1.02278,-0.56751 0.13469,-0.31305 -0.0146,-0.7131 0,-1.02251 0.13469,-0.0801 0.2002,0 0.34218,0 0.22204,-0.0473 0.32761,-0.33125 0.45498,-0.45465 0.0728,-0.0728 0.25116,-0.15653 0.34217,-0.22934 0.22205,-0.17472 0.2621,-0.37857 0.45495,-0.45501 0.0692,-0.0364 0.23296,-0.0619 0.34218,-0.11285 0.1456,-0.04 0.33489,-0.1456 0.56778,-0.22933 0.15289,-0.051 0.50956,-0.0546 0.56779,-0.11285 0.0728,-0.0728 -0.0218,-0.34581 0,-0.45465 0.11649,-0.54966 0.98998,-0.61154 1.47773,-0.79683 0.34217,-0.13104 0.64787,-0.41497 1.02273,-0.34217 -0.0728,0.26209 -0.40034,0.13833 -0.34217,0.45466 0.0837,0.44045 0.64059,-0.0474 0.79712,-0.11285 0.29485,-0.12377 0.86261,-0.20021 1.25203,-0.34218 0.34217,-0.12376 0.89172,-0.29121 0.56779,-0.68398 -0.26937,0 -0.33489,0.24025 -0.56779,0.34217 -0.16017,0.0364 -0.20385,-0.0983 -0.34217,-0.11285 -0.13105,0 -0.2075,0.13833 -0.34218,0.11285 -0.13468,-0.0365 -0.32033,-0.2985 -0.34217,-0.45465 -0.0546,-0.40406 0.40037,-0.49507 0.56779,-0.79684 -0.1092,-0.36765 -0.6042,-0.0874 -0.90993,-0.22932 0.0328,-0.21841 0.20021,-0.41462 0.45499,-0.45466 0.20748,-0.0365 0.67331,0.0364 0.79708,0.11285 0.0728,0.0619 0,0.24025 0.11284,0.34218 0.12376,0.11284 0.29485,0.0364 0.45499,0 0.0582,-0.27666 -0.38583,-0.15653 -0.34218,-0.34218 0.32761,-0.21477 0.96454,-0.0583 1.36488,-0.11285 0.22932,-0.0365 0.47682,-0.22569 0.68427,-0.34217 0.19657,-0.10921 0.36038,-0.29486 0.5678,-0.11284 0.0582,0.19656 -0.11649,0.24025 -0.22934,0.34217 -0.37126,0.33125 -0.73523,0.75315 -1.02277,1.13864 0.17837,0.17472 0.49502,0.08 0.79712,0.11284 0.11648,0 0.21841,0.091 0.34217,0.11285 0.14561,0.0364 0.34218,-0.0437 0.45499,0 0.20385,0.0509 0.2548,0.34218 0.45494,0.34218 0.33126,0 0.30214,-0.45503 0.11284,-0.684 0.0583,-0.22932 0.19293,-0.2912 0.11285,-0.45501 -0.14924,-0.29849 -0.76796,0.0509 -0.79708,-0.34218 -0.0182,-0.24388 0.2548,-0.27301 0.34218,-0.45502 -0.04,-0.46921 0.38577,-0.49105 0.34217,-0.90967 -0.0218,-0.17472 -0.21841,-0.17837 -0.34217,-0.34218 -0.0619,-0.0837 -0.0365,-0.27664 -0.11285,-0.34217 -0.25482,-0.21476 -0.76433,-0.16016 -0.79709,-0.5675 -0.0146,-0.24025 0.0365,-0.41862 0,-0.68398 -0.0328,-0.2439 -0.24025,-0.9752 -0.45494,-1.02252 -0.27302,-0.0583 -0.46955,0.41461 -0.79713,0.5675 -0.17836,0.0837 -0.50591,0.1456 -0.68424,0.11285 -0.11647,-0.0365 -0.32396,-0.11649 -0.34217,-0.34218 -0.0218,-0.25481 0.18201,-0.2985 0.22933,-0.56714 -0.04,-0.16016 -0.18565,-0.10556 -0.34217,-0.22932 -0.17837,-0.1347 -0.33126,-0.4219 -0.56779,-0.45466 -0.12013,0 -0.33853,0.10556 -0.45495,0.11284 -0.21841,0 -0.38582,-0.0546 -0.56779,-0.11284 0.0765,-0.0365 0.14924,-0.0874 0.22932,-0.11285 0.44403,-0.15288 0.90994,-0.21477 1.36489,-0.34218 0.08,-0.0364 0.14924,-0.091 0.22932,-0.11284 0.11285,0.12012 0.20385,0.37457 0.34218,0.45466 0.091,0.0509 0.22932,-0.0365 0.34217,0 0.35674,0.10921 0.63331,0.30941 1.02277,0.22933 0.1347,-0.23661 -0.26936,-0.26938 -0.11284,-0.45502 0.26209,0.0364 0.48043,0.1456 0.68428,0.22933 0.28029,-0.20385 0.46586,-0.24025 0.45494,-0.5675 -0.004,-0.16745 -0.22568,-0.22934 -0.34217,-0.34218 0.22933,-0.04 0.45134,-0.08 0.68428,-0.11284 0.0182,0.0619 0.0765,0.1092 0.11284,0.11284 0.13833,0.0365 0.60055,-0.18564 0.68424,-0.22933 0.0146,0 -0.0219,-0.0983 0,-0.11284 0.92085,-0.0983 1.8963,-0.11285 2.8426,-0.11285 m -9.09922,1.7065 c -0.0837,0.15653 -0.17109,0.28758 -0.34218,0.34218 0.0437,0.23662 -0.30577,0.38186 -0.34217,0.56714 -0.0219,0.1274 -0.007,0.34217 0,0.45501 0.0728,1.16085 -0.91353,1.73563 -2.04916,1.70651 -0.22204,0.21114 -0.10555,0.61846 -0.22932,0.90968 -0.10189,0.24389 -0.43675,0.47649 -0.68424,0.45465 -0.18201,0 -0.45498,-0.28757 -0.45498,-0.45465 0,-0.20749 0.29484,-0.33126 0.11284,-0.56786 0.0255,-0.16017 0.38579,-0.31306 0.34217,-0.56751 -0.0437,-0.26937 -0.34945,-0.0692 -0.68427,-0.11284 -0.18929,-0.0364 -0.48407,-0.13468 -0.68428,-0.22934 0.36763,-0.24388 0.74616,-0.45866 1.13923,-0.68434 0.34217,-0.20385 0.67335,-0.38185 1.02277,-0.5675 0.91721,-0.46194 1.89991,-0.88747 2.8426,-1.25113 m 19.56334,2.72831 c -0.0983,0 -0.14561,0.0655 -0.22932,0.11284 -0.18565,0.11285 -0.19658,0.28757 -0.34218,0.34217 -0.19657,0.0765 -0.42583,0.0365 -0.45495,0.22934 -0.0218,0.14924 0.12013,0.2002 0.11285,0.34217 -0.0728,0.17837 -0.19293,0.24025 -0.22933,0.45465 0.24753,0.40042 0.83348,-0.0364 1.13923,-0.11284 0.13831,-0.04 0.26573,0 0.34217,-0.11285 0.0837,-0.1274 0.0473,-0.38222 0.11284,-0.56786 0.0691,-0.20385 0.25117,-0.15653 0.22934,-0.34218 -0.0219,-0.182 -0.38583,-0.37129 -0.68425,-0.34217 m -26.61709,2.84187 c 0.22205,0.0583 0.71336,0.70218 0.22933,0.90967 -0.0473,0.0365 -0.68064,0.13105 -0.79709,0.11284 -0.16744,-0.0364 -0.28393,-0.31305 -0.45498,-0.34217 -0.33489,-0.0583 -0.79345,0.36766 -1.02273,0 0.0582,-0.21476 0.31305,-0.15653 0.56778,-0.22933 0.45495,-0.12376 1.08463,-0.55658 1.47772,-0.45465 m 0.9099,1.13864 c 0.11284,0 0.20384,0.21477 0.34217,0.22933 0.13105,0 0.2621,-0.13105 0.34218,-0.11285 0.20384,0.0546 0.30577,0.41862 0.11284,0.56786 -0.16016,0 -0.22205,-0.13468 -0.34218,-0.11283 -0.33125,0.0582 -0.43678,0.70217 -0.68428,0.68398 -0.23296,-0.0365 -0.34944,-0.5129 -0.11284,-0.68398 0.007,-0.14561 -0.12012,-0.19658 -0.11285,-0.34218 0.0728,-0.091 0.2621,-0.24025 0.45496,-0.22933 m -1.13922,0.11285 c 0.0691,0.004 0.0874,0 0.11284,0 -0.0328,0.25844 -0.14197,0.33124 -0.34218,0.45501 -0.34581,0.20749 -0.57143,0.46557 -0.68424,0.90967 -0.0328,0.13105 -0.40401,0.48742 -0.56778,0.45466 -0.38583,-0.08 0.13832,-0.80047 0.22932,-0.90967 0.0983,-0.12013 0.22569,-0.20385 0.34218,-0.34218 0.1092,-0.13468 0.12012,-0.38221 0.22932,-0.45502 0.11649,-0.08 0.48043,-0.12012 0.68424,-0.11284 m 34.57714,0.11284 c 0.17472,0.0474 0.21113,0.25118 0.34216,0.34217 0.0983,0.0656 0.23297,0.0437 0.34218,0.11285 0.12741,0.08 0.19657,0.21841 0.34217,0.34218 0.20386,0.17108 0.50956,0.32033 0.79709,0.45501 0.0583,0.0364 0.16016,0.0837 0.22933,0.11285 0.20021,0.25845 0.37854,0.52746 0.56779,0.79683 0.0218,0.1456 0.0437,0.36038 0.11285,0.45465 0.18929,0.25846 0.47679,0.48014 0.68427,0.79683 -0.004,0.30214 0.13105,0.48414 0.34217,0.5675 0.26574,0.45138 0.54232,0.9024 0.79709,1.36433 0.10556,0.21114 0.12741,0.46922 0.22933,0.68399 -0.0765,0 -0.15653,0.0364 -0.22933,0 -0.24025,-0.42226 -1.48864,-0.50562 -1.5942,0.11284 -0.0474,0.27301 0.17836,0.63666 -0.22933,0.68398 -0.25846,0.0364 -0.55688,-0.26573 -0.90993,-0.34217 -0.14561,-0.0364 -0.34218,0.0509 -0.45495,0 -0.26573,-0.091 -0.22569,-0.40733 -0.45495,-0.5675 -0.13104,-0.091 -0.47318,-0.20384 -0.68427,-0.22932 -0.13105,0 -0.20385,0 -0.34218,0 -0.1638,-0.0365 -0.42946,-0.0365 -0.56779,-0.11285 -0.13104,-0.08 -0.42222,-0.22569 -0.45494,-0.34218 -0.0509,-0.17836 0.32761,-0.4146 0.34217,-0.56713 0.007,-0.11285 -0.0837,-0.1638 -0.11284,-0.34217 -0.0182,-0.10557 0.0218,-0.26938 0,-0.34218 -0.0365,-0.12376 -0.25846,-0.22569 -0.45499,-0.22933 -0.17472,0 -0.30577,0.1092 -0.45494,0.11285 -0.21477,0.004 -0.64424,-0.13469 -0.90993,-0.11285 -0.16017,0 -0.30577,0.10189 -0.45498,0.11285 -0.42219,0.0364 -0.69517,-0.0365 -1.02275,0 -0.24025,0 -0.68791,0.12376 -0.90992,0.22932 -0.11285,0.0509 -0.19657,0.15653 -0.34217,0.22934 -0.0656,0.0364 -0.14198,0.0765 -0.22934,0.11284 -0.13832,0.0619 -0.32397,0.19293 -0.45494,0.22933 -0.18929,0.0473 -0.45134,0 -0.79713,0 -0.24752,0 -0.68059,-0.051 -0.68423,-0.34217 -0.004,-0.44738 0.82621,-0.2621 1.25206,-0.34218 0.16017,-0.0365 0.26574,-0.22933 0.45495,-0.34217 0.091,-0.0546 0.14197,-0.0546 0.22933,-0.11285 0.14561,-0.10189 0.43311,-0.33853 0.45495,-0.45466 0.0218,-0.1092 -0.12741,-0.26208 -0.11285,-0.34217 0.0182,-0.10189 0.20749,-0.21113 0.34218,-0.34218 0.20384,-0.2002 0.31669,-0.43645 0.56779,-0.56749 0.17109,-0.091 0.49138,-0.0874 0.56783,-0.22933 0.0182,-0.15652 -0.004,-0.20021 0,-0.34217 0.10556,-0.0983 0.13833,-0.21113 0.22932,-0.22934 0.2621,-0.0583 0.49135,0.12741 0.79709,0.11285 0.13104,0 0.31305,-0.0365 0.45495,-0.11285 0.12012,-0.08 0.22569,-0.1638 0.34217,-0.22932 0.1274,-0.0656 0.18565,-0.21478 0.34218,-0.22934 0.38217,-0.0363 0.62239,0.45102 0.79708,0.68399 0.14561,0.19292 0.55691,0.43281 0.79712,0.5675 0.13469,0.0765 0.30577,0.16381 0.45495,0.22933 0.31669,0.14197 0.899,0.60026 0.90993,0.90968 0.007,0.15288 -0.13833,0.19656 -0.11285,0.34217 0.24025,0.04 0.44767,-0.21477 0.45494,-0.45465 0.004,-0.14925 -0.14196,-0.18202 -0.11284,-0.34218 0.11284,-0.24025 0.53867,-0.0363 0.68428,-0.11285 -0.0255,-0.27301 -0.45131,-0.31305 -0.68428,-0.45466 -0.12376,-0.0765 -0.21112,-0.17472 -0.34217,-0.22932 -0.18929,-0.0765 -0.42219,-0.11649 -0.56779,-0.22933 -0.13833,-0.10557 -0.2075,-0.29121 -0.34218,-0.45465 -0.19656,-0.23297 -0.57507,-0.26573 -0.45494,-0.79684 0.0583,-0.08 0.13468,-0.25116 0.22932,-0.22932 m -32.07663,0.79682 h 0.34218 c 0.12376,0.004 0.29121,-0.0655 0.34217,0 -0.08,0.32033 -0.7716,0.22934 -1.02273,0.11285 0.0146,-0.12013 0.182,-0.0983 0.34217,-0.11285 m -1.13922,0.56787 c 0.0837,0 0.14196,-0.0364 0.22933,0 -0.22569,0.18929 -0.52411,0.33489 -0.90994,0.45465 -0.18564,0.0583 -0.42218,0.091 -0.45494,-0.11284 -0.04,-0.25117 0.17109,-0.20385 0.34218,-0.22933 0.21112,-0.0365 0.54598,-0.10557 0.79711,-0.11284 m 31.62165,0 c -0.15652,0.0509 -0.24025,0.41097 0,0.45465 0.11285,-0.0655 0.14197,-0.24754 0.11285,-0.45465 -0.0619,-0.0656 -0.0619,0 -0.11285,0 m -0.11284,0.68398 c -0.0765,0.0364 -0.1456,0.0364 -0.22933,0.11284 0.004,0.27301 0.0546,0.44738 0,0.68399 0.15653,0.29849 0.48771,0.0946 0.56779,-0.11285 0.0946,-0.50561 -0.1092,-0.74586 -0.34217,-0.68398 m 1.59421,1.36433 c 0.17837,0.29121 0.51318,0.4987 0.90992,0.5675 0.14561,-0.10921 0.16017,-0.38185 0.22933,-0.5675 -0.17108,0.004 -0.3531,0 -0.56779,0 -0.21477,0 -0.44403,-0.10189 -0.56779,0 m -42.54073,9.78 c 0.59692,-0.0364 0.77161,0.7859 1.25204,1.02252 0.12012,0.0619 0.29849,0.08 0.45497,0.11284 0.12741,0.0365 0.22206,0.0728 0.34218,0.11285 0.25845,0.0874 0.58963,0.0365 0.79708,0.11284 0.30942,0.13833 0.5314,0.75315 0.79709,0.90968 0.0146,0.15653 -0.0473,0.33853 0,0.45465 0.1274,0.17109 0.36037,0.23297 0.56779,0.34217 0.24753,0.13469 0.3349,0.46194 0.56779,0.56751 0.0801,0.0364 0.21477,-0.0365 0.34217,0 0.32034,0.0983 0.40767,0.53437 0.68428,0.45429 0.18201,-0.0509 0.20021,-0.28394 0.22933,-0.45429 0.12013,-0.13105 0.26937,-0.33854 0.45495,-0.34217 0.30213,0 0.34581,0.27301 0.45498,0.56749 0.0619,0.16744 0.18565,0.39278 0.22933,0.5675 0.0765,0.30213 0.0619,1.18269 0,1.36433 -0.0765,0.22205 -0.38582,0.32398 -0.56779,0.56786 -0.0874,0.11285 -0.16017,0.25845 -0.22933,0.34218 -0.11648,0.14561 -0.25117,0.20749 -0.34217,0.34217 -0.051,0.0765 -0.0655,0.24025 -0.11285,0.34218 -0.14561,0.30941 -0.34946,0.53874 -0.22933,0.90967 0.0509,0.15289 0.22569,0.27665 0.22933,0.45502 0,0.21113 -0.41855,0.33854 -0.45494,0.5675 -0.0255,0.17109 0.17472,0.45866 0.22932,0.68398 0.04,0.17109 0.3531,0.34218 0.45495,0.45503 0.17109,0.19293 0.29849,0.44009 0.45498,0.68398 0.30942,0.47285 0.495,1.01888 0.79708,1.47718 0.15653,0.24025 0.46224,0.43317 0.5678,0.68398 0.0546,0.1274 -0.0509,0.34218 0,0.45501 0.17473,0.39278 0.96817,0.8296 1.36487,1.02253 0.18565,0.091 0.40039,0 0.56779,0.11285 0.25845,0.14196 0.77892,0.57113 0.90994,0.79683 0.11648,0.20384 0.17108,0.70218 0.22932,1.02215 0.0765,0.42589 -0.0182,0.78954 0,1.25185 0.0146,0.25117 0.1092,0.43281 0.11285,0.68398 0,0.0874 0.004,0.25481 0,0.34218 -0.007,0.30213 0.0255,0.6039 0,0.90931 -0.0146,0.16744 -0.0109,0.31669 0,0.45502 0.0146,0.14924 0.10189,0.20749 0.11284,0.34217 0.007,0.14196 -0.1274,0.34581 -0.11284,0.45502 0.0328,0.30577 0.28029,0.51654 0.34217,0.79683 0.0474,0.22205 0.14197,0.75679 0.11284,1.02252 -0.0182,0.14196 -0.091,0.30213 -0.11284,0.45466 -0.0146,0.12012 0.0182,0.22568 0,0.34217 -0.0218,0.17109 -0.12376,0.29485 -0.11285,0.45466 0.0219,0.32761 0.29122,0.58241 0.34218,0.90967 0.0182,0.1092 -0.004,0.23661 0,0.34217 0.004,0.0983 0.0837,0.13833 0.11285,0.22933 -0.95725,-0.54566 -1.85262,-1.15684 -2.72979,-1.81898 -0.83348,-0.62975 -1.64149,-1.32465 -2.38765,-2.04868 -0.0365,-0.0363 -0.0765,-0.0765 -0.11284,-0.11285 -0.75344,-0.74223 -1.50685,-1.55726 -2.162,-2.38685 -0.3785,-0.48013 -0.79345,-0.97155 -1.13922,-1.47717 -0.20385,-0.30213 -0.37855,-0.59662 -0.5678,-0.90968 -0.11648,-0.18564 -0.22932,-0.37857 -0.34217,-0.5675 -0.32398,-0.55693 -0.62964,-1.12043 -0.90993,-1.70613 -0.17837,-0.36766 -0.29485,-0.75679 -0.45494,-1.13901 -0.38218,-0.90239 -0.74613,-1.7793 -1.02274,-2.72902 -0.19657,-0.67306 -0.31306,-1.34977 -0.45499,-2.04832 -0.1092,-0.53146 -0.26573,-1.05163 -0.34217,-1.59365 -0.04,-0.29485 -0.0837,-0.61155 -0.11284,-0.90968 -0.0874,-0.85507 -0.11285,-1.73562 -0.11285,-2.61581 0,-1.09897 0.0946,-2.12476 0.22933,-3.18369 0.004,-0.0364 -0.004,-0.0765 0,-0.11283 0.22933,0 0.54234,-0.3349 0.79712,-0.34218 m 9.7835,2.72903 c 0.23297,-0.10557 0.30577,0.42589 0.11284,0.45501 -0.182,0.0364 -0.29121,-0.3713 -0.11284,-0.45501" />
  </g>
</svg>
