<?xml version="1.0" encoding="UTF-8" standalone="no"?>
<svg
   xmlns:dc="http://purl.org/dc/elements/1.1/"
   xmlns:cc="http://creativecommons.org/ns#"
   xmlns:rdf="http://www.w3.org/1999/02/22-rdf-syntax-ns#"
   xmlns:svg="http://www.w3.org/2000/svg"
   xmlns="http://www.w3.org/2000/svg"
   xmlns:sodipodi="http://sodipodi.sourceforge.net/DTD/sodipodi-0.dtd"
   xmlns:inkscape="http://www.inkscape.org/namespaces/inkscape"
   width="3.84pt"
   height="3.84pt"
   viewBox="0 0 3.84 3.84"
   version="1.1"
   id="svg74"
   sodipodi:docname="next.svg"
   inkscape:version="1.0.1 (3bc2e813f5, 2020-09-07)">
  <metadata
     id="metadata78">
    <rdf:RDF>
      <cc:Work
         rdf:about="">
        <dc:format>image/svg+xml</dc:format>
        <dc:type
           rdf:resource="http://purl.org/dc/dcmitype/StillImage" />
      </cc:Work>
    </rdf:RDF>
  </metadata>
  <sodipodi:namedview
     pagecolor="#ffffff"
     bordercolor="#666666"
     borderopacity="1"
     objecttolerance="10"
     gridtolerance="10"
     guidetolerance="10"
     inkscape:pageopacity="0"
     inkscape:pageshadow="2"
     inkscape:window-width="1440"
     inkscape:window-height="825"
     id="namedview76"
     showgrid="false"
     inkscape:zoom="116.60157"
     inkscape:cx="2.5599999"
     inkscape:cy="2.5599999"
     inkscape:window-x="0"
     inkscape:window-y="0"
     inkscape:window-maximized="1"
     inkscape:current-layer="svg74" />
  <defs
     id="defs71" />
  <path
     id="shape0"
     fill="#232629"
     stroke="#000000"
     stroke-opacity="0"
     stroke-width="0"
     stroke-linecap="square"
     stroke-linejoin="bevel"
     d="M 1.92,3.36 C 2.7152904,3.36 3.36,2.7152904 3.36,1.92 3.36,1.124712 2.7152904,0.47999998 1.92,0.47999998 1.124712,0.47999998 0.47999998,1.124712 0.47999998,1.92 0.47999998,2.7152904 1.124712,3.36 1.92,3.36 Z m 0,-0.12 C 1.190988,3.24 0.59999998,2.6490156 0.59999998,1.92 0.59999998,1.190988 1.190988,0.59999998 1.92,0.59999998 2.6490156,0.59999998 3.24,1.190988 3.24,1.92 3.24,2.6490156 2.6490156,3.24 1.92,3.24 Z M 1.52766,2.88 2.52,1.92 1.52766,0.95999998 1.44,1.04484 2.3446872,1.92 1.44,2.7951564 Z" />
</svg>
